# xmcd
#
# Track frame offsets: 
#        150
#        17970
#        33137
#        62042
#        76795
#        89974
#        108553
#        122196
#        136324
#        149101
#        163409
#        181995
#
# Disc length: 2599 seconds
#
# Revision: 4
# Processed by: cddbd v1.5.2PL0 Copyright (c) Steve Scherf et al.
# Submitted via: ExactAudioCopy v0.99pb4
#
DISCID=b10a250c
DTITLE=Various Artist - Didn't It Blow Your Mind Vol. 10
DYEAR=1991
DGENRE=Soul
TTITLE0=Timmy Thomas - Why Can't We Live Together
TTITLE1=Brighter Side Of Darkness - Love Jones
TTITLE2=Chi-Lites - A Lonely Man
TTITLE3=Curtis Mayfield - Superfly
TTITLE4=Jerry Butler - One Night Affair
TTITLE5=War - The World Is A Ghetto
TTITLE6=Johnny Nash - Stir It Up
TTITLE7=Four Tops - Ain't No Woman (Like The One I've Got)
TTITLE8=First Choice - Armed And Extremely Dangerous
TTITLE9=Independents - Leaving Me
TTITLE10=Sylvia - Pillow Talk
TTITLE11=New York City - I'm Doin' Fine Now
EXTD=
EXTT0=
EXTT1=
EXTT2=
EXTT3=
EXTT4=
EXTT5=
EXTT6=
EXTT7=
EXTT8=
EXTT9=
EXTT10=
EXTT11=
PLAYORDER=
